<svg version="1.0" xmlns="http://www.w3.org/2000/svg" width="500.000000pt" height="500.000000pt" viewBox="0 0 500.000000 500.000000" preserveAspectRatio="xMidYMid meet">

<g transform="translate(0.000000,500.000000) scale(0.100000,-0.100000)" fill="currentColor" stroke="none">
<path d="M2252 4095 c-347 -64 -614 -207 -870 -466 -211 -213 -373 -532 -427
-844 -112 -640 164 -1295 697 -1653 451 -303 1031 -345 1509 -108 335 167 583
417 744 751 200 415 220 868 58 1305 -151 410 -483 755 -886 921 -102 42 -208
71 -337 94 -105 19 -385 18 -488 0z m568 -282 c-1 -34 -164 -1024 -176 -1065
-5 -17 13 -18 270 -18 152 0 276 -3 276 -6 0 -3 -38 -65 -84 -137 -46 -73
-100 -157 -119 -187 -19 -30 -64 -100 -99 -155 -36 -55 -75 -118 -88 -140 -13
-22 -61 -97 -107 -167 -46 -71 -83 -130 -83 -132 0 -6 -118 -191 -171 -268
-21 -31 -39 -59 -39 -63 0 -9 -192 -306 -196 -302 -3 2 148 1084 160 1150 l6
27 -271 0 -271 0 20 33 c20 31 150 261 339 602 52 93 119 210 149 261 29 50
57 99 60 109 4 10 51 94 106 188 54 93 98 172 98 175 0 2 14 29 31 58 l30 54
80 0 c69 0 79 -2 79 -17z"/>
</g>
</svg>